<svg width="20" height="20" viewBox="0 0 20 20" fill="none" xmlns="http://www.w3.org/2000/svg">
<path d="M10 16.6667C13.6667 16.6667 16.6667 13.6667 16.6667 10C16.6667 6.33335 13.6667 3.33335 10 3.33335C6.33335 3.33335 3.33335 6.33335 3.33335 10C3.33335 13.6667 6.33335 16.6667 10 16.6667ZM10 1.66669C14.5834 1.66669 18.3334 5.41669 18.3334 10C18.3334 14.5834 14.5834 18.3334 10 18.3334C5.41669 18.3334 1.66669 14.5834 1.66669 10C1.66669 5.41669 5.41669 1.66669 10 1.66669ZM10.4167 10.6667L6.41669 13L5.83335 11.8334L9.16669 9.91669V5.83335H10.4167V10.6667Z" fill="#F79F1A"/>
</svg>
